{"title":"Stitch 2014 WEBRip 480p x264 AAC - VYTO [P2PDL]","uid":9623117,"size":362356796,"categoryP":"video","categoryS":"movies","magnet":"?xt=urn:btih:7406a071cae24343fb650773cdec4f381ec92e5d&amp;dn=Stitch+2014+WEBRip+480p+x264+AAC+-+VYTO+%5BP2PDL%5D&amp;tr=udp%3A%2F%2Ftracker.openbittorrent.com%3A80&amp;tr=udp%3A%2F%2Fopen.demonii.com%3A1337&amp;tr=udp%3A%2F%2Ftracker.coppersurfer.tk%3A6969&amp;tr=udp%3A%2F%2Fexodus.desync.com%3A6969","seeders":1,"leechers":0,"uploader":"ValidusVyto","files":-1,"time":1392546609,"description":"Stitch.2014.WEBRip.480p.x264.AAC-VYTO\n\n\nGenre: Thriller &lt;a href=&quot;\nhttp://www.imdb.com/title/tt1864492/&quot; rel=&quot;nofollow&quot; target=&quot;_NEW&quot;&gt;\nhttp://www.imdb.com/title/tt1864492/&lt;/a&gt;\n\n\nFormat                                   : MPEG-4\nFile size                                : 342 MiB\nDuration                                 : 1h 34mn\nOverall bit rate mode                    : Variable\nOverall bit rate                         : 505 Kbps\n\nVideo\nFormat                                   : AVC\nBit rate                                 : 460 Kbps\nWidth                                    : 720 pixels\nHeight                                   : 400 pixels\nDisplay aspect ratio                     : 16:9\nFrame rate mode                          : Variable\nFrame rate                               : 23.976 fps\nBit depth                                : 8 bits\nStream size                              : 312 MiB (91%)\nWriting library                          : x264 core 142 r2389\n\nAudio\nFormat                                   : AAC\nBit rate                                 : 40.0 Kbps\nChannel(s)                               : 2 channels\nChannel positions                        : Front: L R\nSampling rate                            : 48.0 KHz\nStream size                              : 27.1 MiB (8%)\nLanguage                                 : English\n\n\nSubtitle                                 : Yes (English)\n &lt;a href=&quot;\nhttp://ultraimg.com/images/yuv28.png&quot; rel=&quot;nofollow&quot; target=&quot;_NEW&quot;&gt;\nhttp://ultraimg.com/images/yuv28.png&lt;/a&gt; &lt;a href=&quot;\nhttp://ultraimg.com/images/HXbzs.png&quot; rel=&quot;nofollow&quot; target=&quot;_NEW&quot;&gt;\nhttp://ultraimg.com/images/HXbzs.png&lt;/a&gt; &lt;a href=&quot;\nhttp://ultraimg.com/images/LPoH.png&quot; rel=&quot;nofollow&quot; target=&quot;_NEW&quot;&gt;\nhttp://ultraimg.com/images/LPoH.png&lt;/a&gt; &lt;a href=&quot;\nhttp://ultraimg.com/images/1Sb9G.png&quot; rel=&quot;nofollow&quot; target=&quot;_NEW&quot;&gt;\nhttp://ultraimg.com/images/1Sb9G.png&lt;/a&gt; &lt;a href=&quot;\nhttp://ultraimg.com/images/lTXYN.png&quot; rel=&quot;nofollow&quot; target=&quot;_NEW&quot;&gt;\nhttp://ultraimg.com/images/lTXYN.png&lt;/a&gt; &lt;a href=&quot;\nhttp://ultraimg.com/images/PcUrk.png&quot; rel=&quot;nofollow&quot; target=&quot;_NEW&quot;&gt;\nhttp://ultraimg.com/images/PcUrk.png&lt;/a&gt;\n\n\n----------------------------------------------------------------------------------------------------\n\n\nRecommend to you to use latest version of VLC player. Install K-Lite Codec Pack or shark007 codecs\nin case of any kind of problem in playback (For non-VLC Media Player users). Alternatively, install\nCore AVC codecs, the fastest decoder that there is coupled with Community Center Codec Pack and play\non Windows Media Player Classic. Check sample to be sure.\nEnjoy!\n\nEncoder Notes:Looking For Early Access To Anything You Can Provide DVDScr, R5, DVDR, BluRay, Direct\nAudio, Music Releases and Seedboxes. We require dedicated servers, so as to do more \nand fast releases of movies.","torrent":{"xt":"urn:btih:7406a071cae24343fb650773cdec4f381ec92e5d","amp;dn":"Stitch+2014+WEBRip+480p+x264+AAC+-+VYTO+%5BP2PDL%5D","amp;tr":["udp%3A%2F%2Ftracker.openbittorrent.com%3A80","udp%3A%2F%2Fopen.demonii.com%3A1337","udp%3A%2F%2Ftracker.coppersurfer.tk%3A6969","udp%3A%2F%2Fexodus.desync.com%3A6969"],"infoHash":"7406a071cae24343fb650773cdec4f381ec92e5d","infoHashBuffer":{"type":"Buffer","data":[116,6,160,113,202,226,67,67,251,101,7,115,205,236,79,56,30,201,46,93]},"announce":[],"urlList":[]}}